<?xml version="1.0" encoding="UTF-8"?>
<svg width="21px" height="20px" viewBox="0 0 21 20" version="1.1" xmlns="http://www.w3.org/2000/svg" xmlns:xlink="http://www.w3.org/1999/xlink">
    <title>location.slash</title>
    <g id="Icons" stroke="none" stroke-width="1" fill="none" fill-rule="evenodd">
        <g id="location.slash" fill="#ff4b4b" fill-rule="nonzero">
            <rect id="Rectangle" opacity="0" x="1.42756165e-07" y="0" width="20.0885823" height="20"></rect>
            <path d="M1.43660809,10.7269212 L9.06212023,10.7583053 C9.18764575,10.7583053 9.21902981,10.7896893 9.21902981,10.9152256 L9.23994894,18.4780338 C9.25041387,20.1306776 11.2169625,20.4236312 11.9178018,18.9069136 L13.9889354,14.4613028 L12.7545672,13.2269346 L10.8926249,17.2436656 C10.8822349,17.2855467 10.8403538,17.2750497 10.8403538,17.2332757 L10.8822349,11.3441053 L8.59141291,9.06379104 L2.71276103,9.0951751 C2.67092276,9.0951751 2.66045784,9.05333683 2.71276103,9.0324177 L6.71902713,7.20187019 L5.4951881,5.96756624 L0.892679517,8.11191148 C-0.550832927,8.78136665 -0.153343652,10.7165313 1.43660809,10.7269212 Z M15.8193865,10.5073078 L19.6479203,2.2855628 C20.3591495,0.73744718 19.1457753,-0.360878111 17.6081707,0.360878111 L9.42823187,4.15794858 L10.6834657,5.39225253 L17.7440969,2.14958306 C17.8173621,2.118199 17.8487461,2.13911814 17.8173621,2.22280539 L14.5642384,9.2625389 L15.8193865,10.5073078 Z M18.7168956,17.484241 C19.0307362,17.7980816 19.5537681,17.7980816 19.8571116,17.484241 C20.1604552,17.1705076 20.1708451,16.6579727 19.8571116,16.3441321 L3.74832784,0.235355802 C3.43451939,-0.0784517912 2.91150888,-0.0784517912 2.59770043,0.235355802 C2.29434619,0.538702542 2.29434619,1.07217798 2.59770043,1.37552151 L18.7168956,17.484241 Z" id="Shape" fill-opacity="0.85"></path>
        </g>
    </g>
</svg>