<?xml version="1.0" encoding="UTF-8"?>
<svg width="20px" height="20px" viewBox="0 0 20 20" version="1.1" xmlns="http://www.w3.org/2000/svg" xmlns:xlink="http://www.w3.org/1999/xlink">
    <title>plus.magnifyingglass</title>
    <g id="Icons" stroke="none" stroke-width="1" fill="none" fill-rule="evenodd">
        <g id="plus.magnifyingglass" fill="#000000" fill-rule="nonzero">
            <rect id="Rectangle" opacity="0" x="0" y="0" width="19.807345" height="20"></rect>
            <path d="M0,8.08919637 C0,12.5493575 3.62898337,16.1783512 8.08919637,16.1783512 C9.85300712,16.1783512 11.4647387,15.6107663 12.7926675,14.6578712 L17.7800037,19.6552762 C18.0131412,19.8885175 18.3172787,20 18.6416575,20 C19.3308975,20 19.807345,19.4829662 19.807345,18.803795 C19.807345,18.4794162 19.68569,18.1854512 19.4728975,17.9726588 L14.515975,12.9853225 C15.5600075,11.62698 16.1783512,9.93409662 16.1783512,8.08919637 C16.1783512,3.62898337 12.5493575,0 8.08919637,0 C3.62898337,0 0,3.62898337 0,8.08919637 Z M1.733397,8.08919637 C1.733397,4.58184725 4.58184725,1.733397 8.08919637,1.733397 C11.5965663,1.733397 14.444975,4.58184725 14.444975,8.08919637 C14.444975,11.5965663 11.5965663,14.444975 8.08919637,14.444975 C4.58184725,14.444975 1.733397,11.5965663 1.733397,8.08919637 Z M4.74403662,8.08919637 C4.74403662,8.504806 5.06841537,8.82918475 5.484025,8.82918475 L7.349208,8.82918475 L7.349208,10.6943262 C7.349208,11.1099462 7.67358675,11.434325 8.08919637,11.434325 C8.504806,11.434325 8.83931574,11.1099462 8.83931574,10.6943262 L8.83931574,8.82918475 L10.6943262,8.82918475 C11.1099462,8.82918475 11.434325,8.504806 11.434325,8.08919637 C11.434325,7.67358675 11.1099462,7.33906662 10.6943262,7.33906662 L8.83931574,7.33906662 L8.83931574,5.484025 C8.83931574,5.06841537 8.504806,4.74403662 8.08919637,4.74403662 C7.67358675,4.74403662 7.349208,5.06841537 7.349208,5.484025 L7.349208,7.33906662 L5.484025,7.33906662 C5.06841537,7.33906662 4.74403662,7.67358675 4.74403662,8.08919637 Z" id="Shape" fill-opacity="0.85"></path>
        </g>
    </g>
</svg>