<svg width="1200" height="630" viewBox="0 0 1200 630" xmlns="http://www.w3.org/2000/svg"><defs><pattern id="satori_pattern_id_0" x="0" y="0" width="1" height="1" patternUnits="objectBoundingBox"><linearGradient id="satori_biid_0" x1="0" y1="0.7071067811865475" x2="0.7071067811865476" y2="0"><stop offset="0%" stop-color="#b9e2fc"/><stop offset="100%" stop-color="#e9f2e3"/></linearGradient><rect x="0" y="0" width="1200" height="630" fill="url(#satori_biid_0)"/></pattern></defs><rect x="0" y="0" width="1200" height="630" fill="url(#satori_pattern_id_0)"/><clipPath id="satori_bct-id-0"><path d="M371.0 338.5L338.4 338.5L338.4 287.6L349.2 287.6L349.2 329.6L371.0 329.6L371.0 338.5ZM393.2 339.3L393.2 339.3Q387.4 339.3 383.2 336.8Q379.0 334.3 376.7 329.9Q374.4 325.4 374.4 319.6L374.4 319.6Q374.4 313.7 376.7 309.2Q379.0 304.8 383.2 302.3Q387.4 299.8 393.2 299.8L393.2 299.8Q399.0 299.8 403.2 302.3Q407.4 304.8 409.7 309.2Q412.0 313.7 412.0 319.6L412.0 319.6Q412.0 325.4 409.7 329.9Q407.4 334.3 403.2 336.8Q399.0 339.3 393.2 339.3ZM393.3 331.1L393.3 331.1Q395.9 331.1 397.6 329.6Q399.4 328.1 400.3 325.4Q401.2 322.8 401.2 319.5L401.2 319.5Q401.2 316.2 400.3 313.6Q399.4 311.0 397.6 309.4Q395.9 307.9 393.3 307.9L393.3 307.9Q390.6 307.9 388.8 309.4Q387.0 311.0 386.1 313.6Q385.2 316.2 385.2 319.5L385.2 319.5Q385.2 322.8 386.1 325.4Q387.0 328.1 388.8 329.6Q390.6 331.1 393.3 331.1ZM434.2 339.3L434.2 339.3Q428.3 339.3 424.1 336.8Q419.9 334.3 417.6 329.8Q415.4 325.4 415.4 319.6L415.4 319.6Q415.4 313.7 417.6 309.3Q419.9 304.8 424.1 302.3Q428.3 299.8 434.1 299.8L434.1 299.8Q439.1 299.8 442.9 301.7Q446.6 303.5 448.8 306.8Q451.0 310.0 451.2 314.5L451.2 314.5L441.2 314.5Q440.8 311.6 439.0 309.8Q437.2 308.1 434.3 308.1L434.3 308.1Q431.8 308.1 430.0 309.4Q428.2 310.8 427.1 313.3Q426.1 315.8 426.1 319.4L426.1 319.4Q426.1 323.1 427.1 325.6Q428.1 328.2 430.0 329.5Q431.8 330.9 434.3 330.9L434.3 330.9Q436.1 330.9 437.5 330.1Q439.0 329.4 440.0 328.0Q440.9 326.5 441.2 324.5L441.2 324.5L451.2 324.5Q451.0 328.9 448.8 332.2Q446.7 335.5 443.0 337.4Q439.3 339.3 434.2 339.3ZM466.9 339.2L466.9 339.2Q463.3 339.2 460.4 338.0Q457.5 336.7 455.9 334.2Q454.2 331.6 454.2 327.9L454.2 327.9Q454.2 324.7 455.4 322.5Q456.6 320.3 458.6 319.0Q460.6 317.7 463.2 317.0Q465.7 316.4 468.6 316.1L468.6 316.1Q471.9 315.8 473.9 315.4Q476.0 315.1 476.9 314.5Q477.8 313.9 477.8 312.7L477.8 312.7L477.8 312.5Q477.8 310.2 476.3 308.9Q474.9 307.6 472.2 307.6L472.2 307.6Q469.3 307.6 467.6 308.8Q465.9 310.1 465.4 312.0L465.4 312.0L455.6 311.2Q456.3 307.7 458.5 305.1Q460.7 302.6 464.2 301.2Q467.6 299.8 472.2 299.8L472.2 299.8Q475.4 299.8 478.3 300.6Q481.2 301.3 483.5 302.9Q485.8 304.5 487.1 306.9Q488.4 309.4 488.4 312.8L488.4 312.8L488.4 338.5L478.4 338.5L478.4 333.2L478.1 333.2Q477.1 335.0 475.6 336.4Q474.1 337.7 471.9 338.5Q469.7 339.2 466.9 339.2ZM469.9 331.9L469.9 331.9Q472.3 331.9 474.1 331.0Q475.9 330.1 476.9 328.5Q477.9 326.9 477.9 324.9L477.9 324.9L477.9 320.8Q477.4 321.1 476.5 321.4Q475.7 321.7 474.6 321.9Q473.5 322.1 472.5 322.3Q471.4 322.4 470.5 322.5L470.5 322.5Q468.7 322.8 467.3 323.4Q465.9 324.0 465.1 325.0Q464.3 326.0 464.3 327.5L464.3 327.5Q464.3 329.7 465.9 330.8Q467.5 331.9 469.9 331.9ZM492.0 300.3L514.9 300.3L514.9 308.3L492.0 308.3L492.0 300.3ZM497.2 328.2L497.2 291.2L507.8 291.2L507.8 326.8Q507.8 328.3 508.2 329.1Q508.7 329.9 509.5 330.2Q510.3 330.5 511.3 330.5L511.3 330.5Q512.1 330.5 512.8 330.4Q513.6 330.2 514.0 330.2L514.0 330.2L515.6 338.0Q514.8 338.3 513.4 338.6Q512.0 339.0 509.9 339.0L509.9 339.0Q506.1 339.2 503.2 338.0Q500.3 336.9 498.7 334.4Q497.1 331.9 497.2 328.2L497.2 328.2ZM530.4 338.5L519.8 338.5L519.8 300.3L530.4 300.3L530.4 338.5ZM525.2 295.4L525.2 295.4Q522.8 295.4 521.1 293.8Q519.4 292.3 519.4 290.0L519.4 290.0Q519.4 287.9 521.1 286.3Q522.8 284.7 525.2 284.7L525.2 284.7Q527.5 284.7 529.2 286.3Q530.9 287.9 530.9 290.0L530.9 290.0Q530.9 292.3 529.2 293.8Q527.5 295.4 525.2 295.4ZM554.1 339.3L554.1 339.3Q548.3 339.3 544.1 336.8Q539.9 334.3 537.6 329.9Q535.3 325.4 535.3 319.6L535.3 319.6Q535.3 313.7 537.6 309.2Q539.9 304.8 544.1 302.3Q548.3 299.8 554.1 299.8L554.1 299.8Q559.9 299.8 564.1 302.3Q568.3 304.8 570.6 309.2Q572.9 313.7 572.9 319.6L572.9 319.6Q572.9 325.4 570.6 329.9Q568.3 334.3 564.1 336.8Q559.9 339.3 554.1 339.3ZM554.2 331.1L554.2 331.1Q556.8 331.1 558.6 329.6Q560.3 328.1 561.2 325.4Q562.2 322.8 562.2 319.5L562.2 319.5Q562.2 316.2 561.2 313.6Q560.3 311.0 558.6 309.4Q556.8 307.9 554.2 307.9L554.2 307.9Q551.5 307.9 549.7 309.4Q547.9 311.0 547.0 313.6Q546.1 316.2 546.1 319.5L546.1 319.5Q546.1 322.8 547.0 325.4Q547.9 328.1 549.7 329.6Q551.5 331.1 554.2 331.1ZM588.4 316.4L588.4 316.4L588.4 338.5L577.8 338.5L577.8 300.3L587.9 300.3L587.9 307.1L588.4 307.1Q589.6 303.7 592.6 301.8Q595.6 299.8 599.9 299.8L599.9 299.8Q603.8 299.8 606.8 301.6Q609.7 303.3 611.4 306.5Q613.0 309.8 613.0 314.2L613.0 314.2L613.0 338.5L602.4 338.5L602.4 316.1Q602.5 312.6 600.6 310.6Q598.8 308.6 595.6 308.6L595.6 308.6Q593.5 308.6 591.9 309.6Q590.3 310.5 589.3 312.2Q588.4 314.0 588.4 316.4Z M655.7 338.5L645.2 338.5L630.7 287.6L642.4 287.6L650.9 323.0L651.3 323.0L660.6 287.6L670.6 287.6L679.9 323.1L680.4 323.1L688.8 287.6L700.6 287.6L686.0 338.5L675.5 338.5L665.8 305.2L665.4 305.2L655.7 338.5ZM714.7 338.5L704.1 338.5L704.1 300.3L714.7 300.3L714.7 338.5ZM709.4 295.4L709.4 295.4Q707.1 295.4 705.4 293.8Q703.7 292.3 703.7 290.0L703.7 290.0Q703.7 287.9 705.4 286.3Q707.1 284.7 709.4 284.7L709.4 284.7Q711.8 284.7 713.5 286.3Q715.1 287.9 715.1 290.0L715.1 290.0Q715.1 292.3 713.5 293.8Q711.8 295.4 709.4 295.4ZM735.2 339.1L735.2 339.1Q730.9 339.1 727.3 336.9Q723.8 334.6 721.8 330.3Q719.7 325.9 719.7 319.5L719.7 319.5Q719.7 312.9 721.8 308.6Q723.9 304.2 727.5 302.0Q731.0 299.8 735.2 299.8L735.2 299.8Q738.4 299.8 740.5 300.9Q742.7 302.0 744.0 303.6Q745.3 305.2 746.0 306.8L746.0 306.8L746.4 306.8L746.4 287.6L756.9 287.6L756.9 338.5L746.5 338.5L746.5 332.4L746.0 332.4Q745.3 334.0 743.9 335.5Q742.6 337.1 740.4 338.1Q738.3 339.1 735.2 339.1ZM738.6 330.7L738.6 330.7Q741.1 330.7 742.9 329.3Q744.7 327.9 745.6 325.4Q746.6 322.8 746.6 319.4L746.6 319.4Q746.6 316.0 745.6 313.5Q744.7 311.0 742.9 309.6Q741.1 308.3 738.6 308.3L738.6 308.3Q736.0 308.3 734.2 309.7Q732.4 311.1 731.5 313.6Q730.5 316.1 730.5 319.4L730.5 319.4Q730.5 322.8 731.5 325.3Q732.4 327.9 734.2 329.3Q736.0 330.7 738.6 330.7ZM780.8 353.6L780.8 353.6Q775.7 353.6 772.0 352.2Q768.3 350.8 766.2 348.4Q764.0 346.0 763.4 343.0L763.4 343.0L773.2 341.7Q773.6 342.8 774.6 343.8Q775.5 344.8 777.1 345.4Q778.7 346.0 781.1 346.0L781.1 346.0Q784.5 346.0 786.8 344.3Q789.0 342.7 789.0 338.7L789.0 338.7L789.0 331.8L788.6 331.8Q787.9 333.4 786.5 334.8Q785.1 336.2 782.9 337.1Q780.7 338.0 777.7 338.0L777.7 338.0Q773.4 338.0 769.9 336.0Q766.3 334.0 764.3 329.8Q762.2 325.7 762.2 319.4L762.2 319.4Q762.2 312.9 764.3 308.5Q766.4 304.2 769.9 302.0Q773.5 299.8 777.7 299.8L777.7 299.8Q780.9 299.8 783.0 300.9Q785.2 302.0 786.5 303.6Q787.8 305.2 788.6 306.8L788.6 306.8L789.0 306.8L789.0 300.3L799.5 300.3L799.5 338.9Q799.5 343.8 797.1 347.0Q794.7 350.3 790.5 352.0Q786.3 353.6 780.8 353.6ZM781.0 330.0L781.0 330.0Q783.6 330.0 785.4 328.7Q787.1 327.5 788.1 325.1Q789.1 322.7 789.1 319.3L789.1 319.3Q789.1 315.9 788.1 313.5Q787.2 311.0 785.4 309.6Q783.6 308.3 781.0 308.3L781.0 308.3Q778.4 308.3 776.6 309.7Q774.8 311.1 773.9 313.6Q773.0 316.0 773.0 319.3L773.0 319.3Q773.0 322.6 773.9 325.0Q774.9 327.4 776.6 328.7Q778.4 330.0 781.0 330.0ZM823.3 339.3L823.3 339.3Q817.4 339.3 813.2 336.9Q809.0 334.5 806.7 330.1Q804.4 325.6 804.4 319.6L804.4 319.6Q804.4 313.7 806.7 309.3Q809.0 304.8 813.1 302.3Q817.3 299.8 822.9 299.8L822.9 299.8Q826.7 299.8 830.0 301.0Q833.2 302.3 835.7 304.7Q838.1 307.1 839.5 310.7Q840.9 314.4 840.9 319.2L840.9 319.2L840.9 322.1L808.6 322.1L808.6 315.6L830.9 315.6Q830.9 313.3 829.9 311.5Q828.9 309.8 827.1 308.8Q825.4 307.7 823.1 307.7L823.1 307.7Q820.7 307.7 818.8 308.9Q817.0 310.0 815.9 311.8Q814.9 313.7 814.9 315.9L814.9 315.9L814.9 322.2Q814.9 325.0 815.9 327.1Q817.0 329.1 818.9 330.2Q820.8 331.4 823.5 331.4L823.5 331.4Q825.3 331.4 826.7 330.9Q828.2 330.4 829.2 329.4Q830.3 328.4 830.8 326.9L830.8 326.9L840.6 327.6Q839.9 331.1 837.6 333.7Q835.3 336.4 831.7 337.8Q828.1 339.3 823.3 339.3ZM843.1 300.3L866.1 300.3L866.1 308.3L843.1 308.3L843.1 300.3ZM848.3 328.2L848.3 291.2L858.9 291.2L858.9 326.8Q858.9 328.3 859.3 329.1Q859.8 329.9 860.6 330.2Q861.4 330.5 862.5 330.5L862.5 330.5Q863.2 330.5 864.0 330.4Q864.7 330.2 865.1 330.2L865.1 330.2L866.8 338.0Q866.0 338.3 864.5 338.6Q863.1 339.0 861.0 339.0L861.0 339.0Q857.2 339.2 854.3 338.0Q851.5 336.9 849.9 334.4Q848.3 331.9 848.3 328.2L848.3 328.2Z "/></clipPath><defs><pattern id="satori_pattern_id-0_0" x="0" y="0" width="1" height="1" patternUnits="objectBoundingBox"><linearGradient id="satori_biid-0_0" x1="0" y1="0" x2="1" y2="0"><stop offset="0%" stop-color="black"/><stop offset="100%" stop-color="#6fa0fa"/></linearGradient><rect x="0" y="0" width="532" height="84" fill="url(#satori_biid-0_0)"/></pattern></defs><rect x="334" y="273" width="532" height="84" fill="url(#satori_pattern_id-0_0)" clip-path="url(#satori_bct-id-0)"/></svg>