<?xml version="1.0" encoding="UTF-8"?>
<svg width="20.0645263px" height="20px" viewBox="0 0 20.0645263 20" version="1.1" xmlns="http://www.w3.org/2000/svg" xmlns:xlink="http://www.w3.org/1999/xlink">
    <title>location</title>
    <g id="Icons" stroke="none" stroke-width="1" fill="none" fill-rule="evenodd">
        <g id="location" fill="#000000" fill-rule="nonzero">
            <rect id="Rectangle" opacity="0" x="1.44251588e-07" y="0" width="20.0644725" height="19.9999645"></rect>
            <path d="M0.902030658,8.09214781 C-0.556603102,8.76861577 -0.154949982,10.7240303 1.45165708,10.734594 L9.15704922,10.7663068 C9.28388967,10.7663068 9.31560249,10.7980196 9.31560249,10.9249034 L9.33674076,18.5668266 C9.34731531,20.2368907 11.3344643,20.5328048 12.0426451,19.000199 L19.8537394,2.20475519 C20.5724189,0.640427908 19.3463343,-0.469402738 17.7926227,0.259914142 L0.902030658,8.09214781 Z M2.74117819,9.08571148 C2.69890164,9.08571148 2.6883271,9.04342411 2.74117819,9.02228584 L17.9299727,2.06735102 C18.0040054,2.0356382 18.0357182,2.05678729 18.0040054,2.14134037 L11.0067291,17.3196361 C10.9962303,17.3618477 10.9539105,17.351349 10.9539105,17.3090291 L11.0067291,9.83616879 C11.0067291,9.37109436 10.6791021,9.04342411 10.203464,9.04342411 L2.74117819,9.08571148 Z" id="Shape" fill-opacity="0.85"></path>
        </g>
    </g>
</svg>