<?xml version="1.0" encoding="UTF-8"?>
<svg width="23.4986802px" height="20px" viewBox="0 0 23.4986802 20" version="1.1" xmlns="http://www.w3.org/2000/svg" xmlns:xlink="http://www.w3.org/1999/xlink">
    <title>arrowshape.turn.up.left</title>
    <g id="Icons" stroke="none" stroke-width="1" fill="none" fill-rule="evenodd">
        <g id="arrowshape.turn.up.left" fill="#000000" fill-rule="nonzero">
            <rect id="Rectangle" opacity="0" x="0" y="0" width="23.4986802" height="20"></rect>
            <path d="M10.6485192,19.989174 C11.3896841,19.989174 11.9237273,19.4441933 11.9237273,18.7139437 L11.9237273,14.550416 L12.2398004,14.550416 C16.4687303,14.550416 19.1281201,15.6185023 21.0354968,19.1825847 C21.4169722,19.8801333 21.9183143,19.989174 22.3760177,19.989174 C22.9536995,19.989174 23.4986802,19.4659568 23.4986802,18.5286748 C23.4986802,10.4741321 20.0871657,5.44959514 12.2398004,5.44959514 L11.9237273,5.44959514 L11.9237273,1.32970608 C11.9237273,0.599455354 11.3896841,0 10.6267111,0 C10.0926568,0 9.73297842,0.228882974 9.15531895,0.773842488 L0.555859129,8.81744876 C0.130790908,9.2207211 0,9.62399344 0,9.9945647 C0,10.3542319 0.141689407,10.7684083 0.555859129,11.1607766 L9.15531895,19.280688 C9.67849151,19.7710925 10.1144538,19.989174 10.6485192,19.989174 Z M10.0272658,17.6457458 C9.96186363,17.6457458 9.89647264,17.6130447 9.84197456,17.5477542 L2.07084861,10.2016418 C1.98364946,10.1144538 1.95095955,10.0599557 1.95095955,9.9945647 C1.95095955,9.92916255 1.98364946,9.86377156 2.07084861,9.78747649 L9.83107049,2.34332781 C9.88556856,2.29973382 9.95097071,2.25612866 10.0163617,2.25612866 C10.1144538,2.25612866 10.1689518,2.32153081 10.1689518,2.4087188 L10.1689518,6.73570723 C10.1689518,6.98638943 10.2888409,7.09537442 10.5395231,7.09537442 L12.000067,7.09537442 C19.4768944,7.09537442 21.7330454,12.2834391 21.9510154,17.4277758 C21.9510154,17.5150531 21.9183143,17.5477542 21.8637381,17.5477542 C21.8202111,17.5477542 21.7983359,17.5150531 21.7657465,17.4387134 C20.4795786,14.7029838 17.1771048,12.9046479 12.000067,12.9046479 L10.5395231,12.9046479 C10.2888409,12.9046479 10.1689518,13.0136887 10.1689518,13.2643597 L10.1689518,17.482352 C10.1689518,17.5804552 10.1144538,17.6457458 10.0272658,17.6457458 Z" id="Shape" fill-opacity="0.85"></path>
        </g>
    </g>
</svg>